<svg width="32" height="32" viewBox="0 0 32 32" fill="none" xmlns="http://www.w3.org/2000/svg">
<path d="M28.4137 9.17125L22.8288 3.585C22.643 3.39924 22.4225 3.25188 22.1798 3.15134C21.9372 3.0508 21.6771 2.99905 21.4144 2.99905C21.1517 2.99905 20.8916 3.0508 20.6489 3.15134C20.4062 3.25188 20.1857 3.39924 20 3.585L4.58625 19C4.39972 19.185 4.25184 19.4053 4.1512 19.648C4.05056 19.8907 3.99916 20.151 4 20.4138V26C4 26.5304 4.21071 27.0391 4.58579 27.4142C4.96086 27.7893 5.46957 28 6 28H11.5863C11.849 28.0008 12.1093 27.9494 12.352 27.8488C12.5947 27.7482 12.815 27.6003 13 27.4138L28.4137 12C28.5995 11.8143 28.7469 11.5938 28.8474 11.3511C28.948 11.1084 28.9997 10.8483 28.9997 10.5856C28.9997 10.3229 28.948 10.0628 28.8474 9.82015C28.7469 9.57747 28.5995 9.35698 28.4137 9.17125ZM6.41375 20L17.7075 8.70625L19.7925 10.7925L8.5 22.085L6.41375 20ZM6 22.4138L9.58625 26H6V22.4138ZM12 25.5863L9.91375 23.5L21.2075 12.2063L23.2925 14.2925L12 25.5863Z" fill="#12A594"/>
</svg>
