<svg width="240" height="48" viewBox="0 0 240 48" fill="none" xmlns="http://www.w3.org/2000/svg">
<path d="M0 41.3716H240V43.9343H0V41.3716Z" fill="#12A594"/>
<path d="M226.906 33.8971V13.3955H232.419V16.9726H232.632C233.006 15.7001 233.633 14.7391 234.514 14.0896C235.395 13.4311 236.41 13.1019 237.557 13.1019C237.842 13.1019 238.149 13.1196 238.478 13.1552C238.808 13.1908 239.097 13.2398 239.346 13.3021V18.3474C239.079 18.2673 238.71 18.1961 238.238 18.1338C237.767 18.0715 237.335 18.0404 236.943 18.0404C236.107 18.0404 235.36 18.2228 234.701 18.5876C234.051 18.9436 233.535 19.4419 233.153 20.0825C232.779 20.7232 232.592 21.4618 232.592 22.2982V33.8971H226.906Z" fill="#12A594"/>
<path d="M213.786 34.2975C211.677 34.2975 209.862 33.8704 208.34 33.0162C206.827 32.153 205.662 30.934 204.843 29.359C204.024 27.7751 203.615 25.902 203.615 23.7397C203.615 21.6308 204.024 19.78 204.843 18.1872C205.662 16.5944 206.814 15.3531 208.3 14.4633C209.795 13.5734 211.548 13.1285 213.559 13.1285C214.911 13.1285 216.17 13.3465 217.336 13.7825C218.511 14.2097 219.534 14.8548 220.406 15.7179C221.287 16.5811 221.972 17.6666 222.461 18.9747C222.951 20.2738 223.196 21.7954 223.196 23.5395V25.1011H205.884V21.5774H217.843C217.843 20.7588 217.665 20.0336 217.309 19.4018C216.953 18.77 216.46 18.2762 215.828 17.9202C215.205 17.5554 214.48 17.373 213.652 17.373C212.789 17.373 212.024 17.5732 211.356 17.9736C210.698 18.3652 210.182 18.8946 209.808 19.562C209.434 20.2204 209.243 20.9546 209.234 21.7643V25.1145C209.234 26.1289 209.421 27.0054 209.795 27.7439C210.177 28.4825 210.716 29.052 211.41 29.4524C212.104 29.8528 212.927 30.053 213.879 30.053C214.511 30.053 215.089 29.9641 215.614 29.7861C216.139 29.6081 216.589 29.3412 216.962 28.9852C217.336 28.6293 217.621 28.1933 217.817 27.6772L223.075 28.0242C222.809 29.2878 222.261 30.3912 221.434 31.3344C220.615 32.2687 219.556 32.9984 218.257 33.5234C216.967 34.0395 215.476 34.2975 213.786 34.2975Z" fill="#12A594"/>
<path d="M188.102 34.2309C186.545 34.2309 185.134 33.8305 183.871 33.0296C182.616 32.2199 181.619 31.032 180.881 29.4659C180.151 27.8909 179.786 25.9599 179.786 23.6731C179.786 21.3239 180.165 19.3708 180.921 17.8136C181.677 16.2475 182.683 15.0773 183.937 14.3032C185.201 13.5201 186.585 13.1286 188.089 13.1286C189.236 13.1286 190.193 13.3244 190.958 13.7159C191.732 14.0985 192.355 14.579 192.827 15.1574C193.307 15.7269 193.672 16.2875 193.921 16.8392H194.095V6.5617H199.768V33.8972H194.162V30.6137H193.921C193.654 31.1832 193.276 31.7483 192.787 32.3089C192.306 32.8605 191.679 33.3188 190.905 33.6836C190.14 34.0485 189.205 34.2309 188.102 34.2309ZM189.904 29.7061C190.82 29.7061 191.594 29.457 192.226 28.9587C192.867 28.4515 193.356 27.744 193.694 26.8364C194.041 25.9288 194.215 24.8654 194.215 23.6464C194.215 22.4273 194.046 21.3684 193.708 20.4697C193.37 19.571 192.88 18.8769 192.24 18.3875C191.599 17.8981 190.82 17.6534 189.904 17.6534C188.969 17.6534 188.182 17.907 187.541 18.4142C186.901 18.9214 186.416 19.6244 186.086 20.5231C185.757 21.4218 185.593 22.4629 185.593 23.6464C185.593 24.8388 185.757 25.8932 186.086 26.8097C186.425 27.7173 186.91 28.4292 187.541 28.9453C188.182 29.4525 188.969 29.7061 189.904 29.7061Z" fill="#12A594"/>
<path d="M162.852 22.0446V33.8971H157.166V13.3955H162.585V17.0126H162.825C163.279 15.8202 164.04 14.877 165.108 14.183C166.175 13.48 167.47 13.1285 168.992 13.1285C170.415 13.1285 171.657 13.44 172.716 14.0628C173.775 14.6857 174.598 15.5755 175.185 16.7323C175.772 17.8802 176.066 19.2505 176.066 20.8433V33.8971H170.38V21.8577C170.389 20.6031 170.068 19.6243 169.419 18.9213C168.769 18.2094 167.875 17.8535 166.736 17.8535C165.971 17.8535 165.294 18.0181 164.707 18.3474C164.129 18.6766 163.675 19.1571 163.346 19.7889C163.025 20.4118 162.861 21.1637 162.852 22.0446Z" fill="#12A594"/>
<path d="M146.925 33.8971V13.3955H152.611V33.8971H146.925ZM149.781 10.7527C148.936 10.7527 148.211 10.4724 147.606 9.91185C147.01 9.34236 146.712 8.66164 146.712 7.86969C146.712 7.08665 147.01 6.41483 147.606 5.85424C148.211 5.28475 148.936 5 149.781 5C150.627 5 151.348 5.28475 151.944 5.85424C152.549 6.41483 152.851 7.08665 152.851 7.86969C152.851 8.66164 152.549 9.34236 151.944 9.91185C151.348 10.4724 150.627 10.7527 149.781 10.7527Z" fill="#12A594"/>
<path d="M112.639 6.5617H119.766L127.294 24.9277H127.615L135.143 6.5617H142.27V33.8972H136.664V16.1051H136.437L129.363 33.7637H125.546L118.472 16.0384H118.245V33.8972H112.639V6.5617Z" fill="#12A594"/>
<path d="M97.1526 33.8971V13.3955H102.665V16.9726H102.879C103.252 15.7001 103.88 14.7391 104.761 14.0896C105.642 13.4311 106.656 13.1019 107.804 13.1019C108.089 13.1019 108.396 13.1196 108.725 13.1552C109.054 13.1908 109.343 13.2398 109.592 13.3021V18.3474C109.325 18.2673 108.956 18.1961 108.485 18.1338C108.013 18.0715 107.581 18.0404 107.19 18.0404C106.353 18.0404 105.606 18.2228 104.947 18.5876C104.298 18.9436 103.782 19.4419 103.399 20.0825C103.025 20.7232 102.839 21.4618 102.839 22.2982V33.8971H97.1526Z" fill="#12A594"/>
<path d="M83.3647 34.2975C81.2914 34.2975 79.4984 33.857 77.9857 32.9761C76.4819 32.0863 75.3206 30.8494 74.502 29.2655C73.6833 27.6727 73.274 25.8264 73.274 23.7264C73.274 21.6086 73.6833 19.7577 74.502 18.1738C75.3206 16.5811 76.4819 15.3442 77.9857 14.4633C79.4984 13.5734 81.2914 13.1285 83.3647 13.1285C85.438 13.1285 87.2265 13.5734 88.7303 14.4633C90.243 15.3442 91.4087 16.5811 92.2274 18.1738C93.046 19.7577 93.4553 21.6086 93.4553 23.7264C93.4553 25.8264 93.046 27.6727 92.2274 29.2655C91.4087 30.8494 90.243 32.0863 88.7303 32.9761C87.2265 33.857 85.438 34.2975 83.3647 34.2975ZM83.3914 29.8929C84.3346 29.8929 85.1221 29.6259 85.7539 29.092C86.3856 28.5492 86.8617 27.8107 87.182 26.8764C87.5113 25.942 87.6759 24.8787 87.6759 23.6863C87.6759 22.494 87.5113 21.4306 87.182 20.4963C86.8617 19.562 86.3856 18.8234 85.7539 18.2806C85.1221 17.7378 84.3346 17.4664 83.3914 17.4664C82.4393 17.4664 81.6384 17.7378 80.9888 18.2806C80.3482 18.8234 79.8632 19.562 79.534 20.4963C79.2136 21.4306 79.0535 22.494 79.0535 23.6863C79.0535 24.8787 79.2136 25.942 79.534 26.8764C79.8632 27.8107 80.3482 28.5492 80.9888 29.092C81.6384 29.6259 82.4393 29.8929 83.3914 29.8929Z" fill="#12A594"/>
<path d="M70.6179 13.3954V17.6666H58.2715V13.3954H70.6179ZM61.0745 8.48357H66.7605V27.5971C66.7605 28.1221 66.8406 28.5314 67.0007 28.825C67.1609 29.1098 67.3833 29.31 67.6681 29.4257C67.9617 29.5413 68.2999 29.5992 68.6825 29.5992C68.9494 29.5992 69.2164 29.5769 69.4833 29.5324C69.7503 29.479 69.955 29.439 70.0973 29.4123L70.9916 33.6434C70.7069 33.7324 70.3064 33.8347 69.7903 33.9504C69.2742 34.075 68.6469 34.1506 67.9083 34.1773C66.538 34.2307 65.3367 34.0483 64.3045 33.6301C63.2812 33.2119 62.4848 32.5623 61.9154 31.6814C61.3459 30.8004 61.0656 29.6882 61.0745 28.3445V8.48357Z" fill="#12A594"/>
<path d="M45.9251 34.2975C43.8518 34.2975 42.0588 33.857 40.5461 32.9761C39.0423 32.0863 37.8811 30.8494 37.0625 29.2655C36.2438 27.6727 35.8345 25.8264 35.8345 23.7264C35.8345 21.6086 36.2438 19.7577 37.0625 18.1738C37.8811 16.5811 39.0423 15.3442 40.5461 14.4633C42.0588 13.5734 43.8518 13.1285 45.9251 13.1285C47.9984 13.1285 49.787 13.5734 51.2908 14.4633C52.8035 15.3442 53.9692 16.5811 54.7878 18.1738C55.6065 19.7577 56.0158 21.6086 56.0158 23.7264C56.0158 25.8264 55.6065 27.6727 54.7878 29.2655C53.9692 30.8494 52.8035 32.0863 51.2908 32.9761C49.787 33.857 47.9984 34.2975 45.9251 34.2975ZM45.9518 29.8929C46.8951 29.8929 47.6826 29.6259 48.3143 29.092C48.9461 28.5492 49.4222 27.8107 49.7425 26.8764C50.0717 25.942 50.2364 24.8787 50.2364 23.6863C50.2364 22.494 50.0717 21.4306 49.7425 20.4963C49.4222 19.562 48.9461 18.8234 48.3143 18.2806C47.6826 17.7378 46.8951 17.4664 45.9518 17.4664C44.9997 17.4664 44.1989 17.7378 43.5493 18.2806C42.9086 18.8234 42.4237 19.562 42.0944 20.4963C41.7741 21.4306 41.6139 22.494 41.6139 23.6863C41.6139 24.8787 41.7741 25.942 42.0944 26.8764C42.4237 27.8107 42.9086 28.5492 43.5493 29.092C44.1989 29.6259 44.9997 29.8929 45.9518 29.8929Z" fill="#12A594"/>
<path d="M2.37583 6.5617H9.50336L17.0313 24.9277H17.3516L24.8796 6.5617H32.0071V33.8972H26.4012V16.1051H26.1743L19.1002 33.7637H15.2828L8.20866 16.0384H7.98175V33.8972H2.37583V6.5617Z" fill="#12A594"/>
</svg>
